<svg xmlns="http://www.w3.org/2000/svg" width="180" height="32" fill="none" viewBox="0 0 180 32" class="h-5 w-auto"><path fill="#121212" d="M144.455 25.076c-1.124 0-2.131-.19-3.021-.572-.891-.403-1.601-.976-2.132-1.718-.508-.763-.763-1.686-.763-2.767s.255-1.983.763-2.704c.531-.742 1.252-1.293 2.163-1.654.933-.381 1.994-.572 3.181-.572h4.326v-.89c0-.743-.233-1.347-.7-1.814-.466-.488-1.209-.731-2.226-.731-.997 0-1.485.148-1.962.466-.102.068-.329.286-1.299 1.105-.371.314-.954.604-1.785.464-.496-.083-1.307-.428-2.036-.928.399-.799.869-1.436 1.42-2.093.572-.679 1.325-1.22 2.258-1.623.954-.424 2.11-.636 3.467-.636 2.078 0 3.722.52 4.93 1.559 1.209 1.039 1.813 2.544 1.813 4.517v5.884c0 .636.297.954.891.954h1.272v3.308h-2.672c-.784 0-1.431-.19-1.94-.572a1.813 1.813 0 01-.763-1.527V22.5h-.604c-.085.255-.276.594-.573 1.018-.297.403-.763.763-1.4 1.081-.636.319-1.505.477-2.608.477zm.7-3.244c1.124 0 2.036-.307 2.735-.922.721-.637 1.082-1.474 1.082-2.513v-.318h-4.04c-.742 0-1.325.159-1.749.477-.424.318-.636.763-.636 1.336 0 .572.222 1.039.668 1.4.445.36 1.092.54 1.94.54zM129.085 25.076c-1.527 0-2.916-.318-4.167-.954a7.204 7.204 0 01-2.926-2.767c-.721-1.209-1.082-2.672-1.082-4.39v-.445c0-1.717.361-3.18 1.082-4.39a7.204 7.204 0 012.926-2.767c1.251-.636 2.64-.954 4.167-.954 1.505 0 2.799.265 3.88.795 1.082.53 1.951 1.262 2.608 2.195a7.34 7.34 0 011.336 3.117l-3.88.827a4.57 4.57 0 00-.573-1.717 3.182 3.182 0 00-1.272-1.209c-.53-.297-1.198-.445-2.004-.445a4.49 4.49 0 00-2.195.54c-.636.34-1.145.86-1.526 1.559-.361.678-.541 1.516-.541 2.513v.318c0 .996.18 1.845.541 2.544.381.68.89 1.199 1.526 1.56.658.338 1.389.508 2.195.508 1.209 0 2.121-.308 2.736-.922.349-.35.801-1.074.922-1.24.591-.812 1.35-.995 1.964-.96.606.037 1.187.295 2.302.7-.388.966-.852 2.093-1.531 3.026-.657.912-1.526 1.633-2.608 2.163-1.081.53-2.375.796-3.88.796zM175.084 24.68c-1.056 0-1.918-.323-2.586-.97-.646-.668-.97-1.551-.97-2.65v-9.052h-4.008V8.645h4.008l-.002-4.994c1.237 0 2.142-.053 2.678.147 1.203.449 1.398 1.73 1.398 1.917v2.93h4.396v3.363h-4.396v8.34c0 .647.301.97.905.97h3.104v3.362h-4.527zM97.06 25.133c-2.091 0-3.805-.453-5.141-1.358-1.153-.873-1.099-.691-2.392-1.898.876-1.09 1.336-1.549 2.067-1.714.642-.146.933-.042 1.217.037.248.068.613.285.948.513.642.438 1.037.734 1.554.928.54.173 1.121.259 1.746.259.948 0 1.649-.162 2.102-.485.452-.345.678-.765.678-1.26 0-.497-.215-.874-.646-1.133-.431-.28-1.12-.506-2.07-.678l-.904-.162a17.164 17.164 0 01-3.072-.873c-.926-.388-1.67-.916-2.23-1.584s-.84-1.53-.84-2.586c0-1.595.581-2.813 1.745-3.653 1.164-.863 2.694-1.294 4.59-1.294 1.79 0 3.276.4 4.462 1.197 1.185.797 1.961 1.842 2.328 3.135l-3.783 1.164c-.172-.819-.528-1.4-1.067-1.745-.517-.345-1.164-.518-1.94-.518-.775 0-1.368.14-1.778.42-.41.26-.614.626-.614 1.1 0 .517.216.905.647 1.164.43.237 1.013.42 1.745.55l.906.16c1.207.216 2.295.507 3.265.874.991.345 1.767.851 2.328 1.52.582.646.873 1.53.873 2.65 0 1.681-.615 2.985-1.843 3.912-1.207.905-2.834 1.358-4.882 1.358zM112.751 25.133c-2.091 0-3.805-.453-5.141-1.358-1.153-.873-1.098-.691-2.391-1.898.876-1.09 1.335-1.549 2.066-1.714.642-.146.933-.042 1.217.037.248.068.613.285.948.513.642.438 1.037.734 1.555.928.539.173 1.12.259 1.746.259.948 0 1.648-.162 2.101-.485.452-.345.679-.765.679-1.26 0-.497-.216-.874-.647-1.133-.431-.28-1.121-.506-2.069-.678l-.905-.162a17.137 17.137 0 01-3.071-.873c-.927-.388-1.671-.916-2.231-1.584-.56-.668-.841-1.53-.841-2.586 0-1.595.582-2.813 1.746-3.653 1.164-.863 2.694-1.294 4.591-1.294 1.789 0 3.276.4 4.461 1.197 1.186.797 1.962 1.842 2.328 3.135l-3.782 1.164c-.173-.819-.529-1.4-1.067-1.745-.518-.345-1.164-.518-1.94-.518s-1.369.14-1.778.42c-.41.26-.614.626-.614 1.1 0 .517.215.905.646 1.164.431.237 1.013.42 1.746.55l.905.16a18.4 18.4 0 013.265.874c.992.345 1.768.851 2.328 1.52.582.646.873 1.53.873 2.65 0 1.681-.614 2.985-1.843 3.912-1.207.905-2.834 1.358-4.881 1.358zM80.367 25.133c-1.595 0-3.006-.334-4.235-1.002a7.448 7.448 0 01-2.845-2.878c-.668-1.25-1.002-2.715-1.002-4.396v-.388c0-1.682.334-3.136 1.002-4.365.668-1.25 1.606-2.209 2.813-2.877 1.207-.69 2.608-1.035 4.203-1.035 1.573 0 2.942.356 4.106 1.067 1.163.69 2.069 1.66 2.715 2.91.647 1.228.97 2.662.97 4.3v1.39h-11.67c.042 1.099.452 1.993 1.228 2.683.776.69 1.724 1.034 2.845 1.034 1.142 0 1.983-.247 2.521-.743.153-.14.259-.248.42-.41.566-.643 1.322-.798 1.983-.678 1.061.127 2.171 1.23 2.171 1.23-.36.512-.945 1.341-1.34 1.798-.561.646-1.316 1.207-2.264 1.68-.948.453-2.155.68-3.62.68zM76.456 14.82h7.5c-.086-.927-.463-1.67-1.132-2.23-.646-.561-1.498-.841-2.554-.841-1.099 0-1.972.28-2.618.84-.647.56-1.046 1.304-1.196 2.23zM61.215 24.68V8.59c.85 0 1.705-.073 2.277.042 1.009.203 1.597.968 1.732 1.824h.581c.238-.647.626-1.121 1.164-1.423.56-.302 1.207-.452 1.94-.452h1.94v3.62h-2.005c-1.034 0-1.885.28-2.553.84-.669.54-1.003 1.38-1.003 2.522v9.117h-4.073zM156.453 24.106l.001-16.09c.85 0 1.704-.073 2.276.042 1.009.202 1.597.968 1.732 1.823h.582c.237-.646.625-1.12 1.164-1.422.56-.302 1.207-.453 1.939-.453h1.94v3.621h-2.004c-1.035 0-1.886.28-2.554.84-.668.54-1.002 1.38-1.002 2.522v9.117h-4.074zM42.904 31.251l-.002-22.855c.258 0 1.266.004 2.122.106.697.084 1.759.747 1.89 2.083h.582c.366-.625.937-1.175 1.713-1.65.776-.495 1.886-.743 3.33-.743 1.293 0 2.49.324 3.588.97 1.1.625 1.983 1.552 2.651 2.78.669 1.229 1.003 2.716 1.003 4.462v.517c0 1.746-.334 3.233-1.002 4.462-.669 1.228-1.552 2.166-2.652 2.812a7.136 7.136 0 01-3.588.938c-.97 0-1.789-.119-2.457-.356-.647-.215-1.175-.496-1.584-.84a6.07 6.07 0 01-.938-1.1h-.582s-.064 5.126-.064 6.315c0 1.19-.702 1.709-1.37 1.979-.85.344-1.484.12-2.64.12zm8.406-9.675c1.272 0 2.317-.398 3.136-1.196.841-.819 1.261-2.004 1.261-3.556v-.323c0-1.552-.42-2.727-1.26-3.524-.841-.819-1.886-1.228-3.137-1.228-1.25 0-2.295.41-3.135 1.228-.84.797-1.261 1.972-1.261 3.524v.323c0 1.552.42 2.737 1.26 3.556.841.798 1.886 1.197 3.136 1.197z"></path><path fill="#121212" fill-rule="evenodd" d="M0 13.474v11.72a6.129 6.129 0 006.129 6.128h18.387a6.129 6.129 0 006.128-6.129V6.807a6.129 6.129 0 00-6.128-6.13H1.195c.52 4.427 1.09 8.68 2.372 12.035.722 1.891 1.626 3.366 2.764 4.39.862.775 1.912 1.341 3.248 1.61l.098-7.085c.047-3.426 2.743-6.523 6.311-6.941 1.91-.224 3.83.423 5.261 1.572 1.445 1.159 2.527 2.945 2.498 5.08-.041 2.97-1.007 5.94-3.257 8.099-1.796 1.724-4.26 2.789-7.35 3.025 0 0 .004 3.843-.037 4.346-.042.503-.413 1.352-1.157 1.755-.664.359-1.033.351-2.228.328l-.279-.006.027-1.94.063-4.578c-2.243-.322-4.102-1.22-5.614-2.58C2.21 18.25 1.038 16.211.194 14c-.067-.174-.131-.349-.194-.526zm17.99 3.357c-1.035.994-2.574 1.774-4.8 2.002l.099-7.156c.022-1.63 1.369-3.199 3.12-3.404.85-.1 1.747.09 2.506.7.424.34 1.037.895 1.222 2.315.145 1.928-.754 4.206-2.147 5.543z" clip-rule="evenodd"></path></svg>